<svg xmlns="http://www.w3.org/2000/svg" viewBox="0 0 400 300"><defs><radialGradient id="b" cx=".5" cy=".4" r=".8"><stop offset="0" stop-color="#ffd9a8"/><stop offset="1" stop-color="#e0812f"/></radialGradient><filter id="s" x="-20%" y="-20%" width="140%" height="150%"><feDropShadow dx="0" dy="8" stdDeviation="7" flood-opacity=".35"/></filter></defs><rect width="400" height="300" fill="url(#b)"/><circle cx="200" cy="150" r="112" fill="#fff" filter="url(#s)"/><circle cx="200" cy="150" r="92" fill="none" stroke="#0001" stroke-width="3"/><rect x="105" y="105" width="150" height="38" rx="19" fill="#c9801f" opacity="1" transform="rotate(-14 180.0 124.0)"/><rect x="112" y="109" width="138" height="14" rx="7" fill="#f4b94a" opacity="1" transform="rotate(-14 181.0 116.0)"/><circle cx="254" cy="120" r="17.0" fill="#f8dc9a" opacity="1"/><rect x="105" y="145" width="150" height="38" rx="19" fill="#c9801f" opacity="1" transform="rotate(-4 180.0 164.0)"/><rect x="112" y="149" width="138" height="14" rx="7" fill="#f4b94a" opacity="1" transform="rotate(-4 181.0 156.0)"/><circle cx="256" cy="160" r="17.0" fill="#f8dc9a" opacity="1"/><rect x="105" y="185" width="150" height="38" rx="19" fill="#c9801f" opacity="1" transform="rotate(8 180.0 204.0)"/><rect x="112" y="189" width="138" height="14" rx="7" fill="#f4b94a" opacity="1" transform="rotate(8 181.0 196.0)"/><circle cx="258" cy="206" r="17.0" fill="#f8dc9a" opacity="1"/><circle cx="320" cy="215" r="34.0" fill="#fff" opacity="1"/><circle cx="320" cy="215" r="25.0" fill="#c8371f" opacity="1"/><circle cx="312" cy="208" r="7.0" fill="#ff6b4a" opacity="0.8"/><circle cx="245" cy="212" r="2.5" fill="#3f9b3f" opacity="1"/><circle cx="130" cy="152" r="3.6" fill="#6cc24a" opacity="1"/><circle cx="203" cy="158" r="2.9" fill="#6cc24a" opacity="1"/><circle cx="190" cy="146" r="2.5" fill="#6cc24a" opacity="1"/><circle cx="212" cy="84" r="3.8" fill="#3f9b3f" opacity="1"/><circle cx="204" cy="153" r="3.9" fill="#3f9b3f" opacity="1"/><circle cx="159" cy="178" r="3.5" fill="#6cc24a" opacity="1"/><circle cx="113" cy="136" r="3.1" fill="#6cc24a" opacity="1"/><circle cx="148" cy="211" r="3.9" fill="#6cc24a" opacity="1"/><circle cx="242" cy="124" r="2.4" fill="#3f9b3f" opacity="1"/><circle cx="273" cy="146" r="3.5" fill="#3f9b3f" opacity="1"/><circle cx="260" cy="96" r="3.0" fill="#6cc24a" opacity="1"/><circle cx="223" cy="129" r="3.2" fill="#6cc24a" opacity="1"/><circle cx="251" cy="94" r="3.2" fill="#6cc24a" opacity="1"/><circle cx="233" cy="160" r="2.8" fill="#6cc24a" opacity="1"/><circle cx="221" cy="209" r="2.2" fill="#6cc24a" opacity="1"/><circle cx="175" cy="125" r="3.0" fill="#3f9b3f" opacity="1"/><circle cx="141" cy="189" r="2.9" fill="#3f9b3f" opacity="1"/><circle cx="160" cy="227" r="3.3" fill="#6cc24a" opacity="1"/><circle cx="211" cy="187" r="3.5" fill="#3f9b3f" opacity="1"/><circle cx="109" cy="129" r="2.8" fill="#3f9b3f" opacity="1"/><circle cx="144" cy="219" r="2.9" fill="#6cc24a" opacity="1"/><circle cx="182" cy="216" r="2.8" fill="#3f9b3f" opacity="1"/><circle cx="245" cy="81" r="3.0" fill="#3f9b3f" opacity="1"/><circle cx="136" cy="128" r="3.0" fill="#3f9b3f" opacity="1"/></svg>