<svg xmlns="http://www.w3.org/2000/svg" viewBox="0 0 400 300"><defs><radialGradient id="b" cx=".5" cy=".4" r=".8"><stop offset="0" stop-color="#ffe4cc"/><stop offset="1" stop-color="#d6623a"/></radialGradient><filter id="s" x="-20%" y="-20%" width="140%" height="150%"><feDropShadow dx="0" dy="8" stdDeviation="7" flood-opacity=".35"/></filter></defs><rect width="400" height="300" fill="url(#b)"/><circle cx="200" cy="150" r="112" fill="#fff" filter="url(#s)"/><circle cx="200" cy="150" r="92" fill="none" stroke="#0001" stroke-width="3"/><ellipse cx="200" cy="155" rx="70" ry="50" fill="none" stroke="#f2c464" stroke-width="8" stroke-linecap="round" transform="rotate(0 200 155)"/><ellipse cx="203" cy="157" rx="61" ry="44" fill="none" stroke="#e6a83a" stroke-width="8" stroke-linecap="round" transform="rotate(25 200 155)"/><ellipse cx="200" cy="159" rx="52" ry="38" fill="none" stroke="#f2c464" stroke-width="8" stroke-linecap="round" transform="rotate(50 200 155)"/><ellipse cx="203" cy="155" rx="43" ry="32" fill="none" stroke="#e6a83a" stroke-width="8" stroke-linecap="round" transform="rotate(75 200 155)"/><ellipse cx="200" cy="157" rx="34" ry="26" fill="none" stroke="#f2c464" stroke-width="8" stroke-linecap="round" transform="rotate(100 200 155)"/><ellipse cx="203" cy="159" rx="25" ry="20" fill="none" stroke="#e6a83a" stroke-width="8" stroke-linecap="round" transform="rotate(125 200 155)"/><circle cx="200" cy="152" r="22.0" fill="#f8e7b0" opacity="1"/><circle cx="190" cy="169" r="9.2" fill="#e79a9a" opacity="1"/><circle cx="168" cy="143" r="11.7" fill="#e79a9a" opacity="1"/><circle cx="204" cy="166" r="9.2" fill="#d46b6b" opacity="1"/><circle cx="230" cy="169" r="11.8" fill="#e79a9a" opacity="1"/><circle cx="171" cy="119" r="10.7" fill="#e79a9a" opacity="1"/><circle cx="157" cy="183" r="10.7" fill="#e79a9a" opacity="1"/><circle cx="226" cy="179" r="2.6" fill="#3f9b3f" opacity="1"/><circle cx="154" cy="132" r="2.6" fill="#3f9b3f" opacity="1"/><circle cx="176" cy="122" r="2.6" fill="#3f9b3f" opacity="1"/><circle cx="169" cy="121" r="2.8" fill="#3f9b3f" opacity="1"/><circle cx="144" cy="162" r="2.3" fill="#3f9b3f" opacity="1"/><circle cx="214" cy="102" r="2.1" fill="#3f9b3f" opacity="1"/><circle cx="187" cy="190" r="2.7" fill="#3f9b3f" opacity="1"/><circle cx="186" cy="208" r="2.5" fill="#3f9b3f" opacity="1"/><circle cx="218" cy="180" r="2.4" fill="#3f9b3f" opacity="1"/><circle cx="216" cy="146" r="2.3" fill="#3f9b3f" opacity="1"/><circle cx="175" cy="184" r="2.1" fill="#3f9b3f" opacity="1"/><circle cx="226" cy="167" r="2.1" fill="#3f9b3f" opacity="1"/><circle cx="186" cy="104" r="2.3" fill="#3f9b3f" opacity="1"/><circle cx="163" cy="182" r="2.9" fill="#3f9b3f" opacity="1"/><circle cx="171" cy="187" r="2.1" fill="#3f9b3f" opacity="1"/><circle cx="202" cy="129" r="2.4" fill="#3f9b3f" opacity="1"/><circle cx="237" cy="129" r="2.4" fill="#3f9b3f" opacity="1"/><circle cx="146" cy="133" r="2.9" fill="#3f9b3f" opacity="1"/><circle cx="193" cy="188" r="2.7" fill="#3f9b3f" opacity="1"/><circle cx="179" cy="170" r="2.2" fill="#3f9b3f" opacity="1"/><circle cx="203" cy="179" r="2.8" fill="#3f9b3f" opacity="1"/><circle cx="213" cy="179" r="2.4" fill="#3f9b3f" opacity="1"/><circle cx="169" cy="183" r="2.7" fill="#3f9b3f" opacity="1"/><circle cx="153" cy="145" r="2.5" fill="#3f9b3f" opacity="1"/><circle cx="240" cy="108" r="2.4" fill="#3f9b3f" opacity="1"/><circle cx="167" cy="176" r="2.1" fill="#3f9b3f" opacity="1"/><circle cx="225" cy="161" r="2.1" fill="#3f9b3f" opacity="1"/><circle cx="185" cy="139" r="2.5" fill="#3f9b3f" opacity="1"/><circle cx="245" cy="135" r="2.9" fill="#3f9b3f" opacity="1"/><circle cx="183" cy="135" r="3.0" fill="#3f9b3f" opacity="1"/><circle cx="167" cy="125" r="4.7" fill="#fff6d6" opacity="1"/><circle cx="241" cy="148" r="3.6" fill="#fff6d6" opacity="1"/><circle cx="232" cy="191" r="4.0" fill="#fff6d6" opacity="1"/><circle cx="185" cy="110" r="4.9" fill="#fff6d6" opacity="1"/><circle cx="177" cy="146" r="4.5" fill="#fff6d6" opacity="1"/><circle cx="186" cy="196" r="4.4" fill="#fff6d6" opacity="1"/><circle cx="197" cy="186" r="3.7" fill="#fff6d6" opacity="1"/><circle cx="208" cy="194" r="4.3" fill="#fff6d6" opacity="1"/><circle cx="160" cy="115" r="4.6" fill="#fff6d6" opacity="1"/><circle cx="221" cy="103" r="3.4" fill="#fff6d6" opacity="1"/></svg>